<mxfile host="Electron" modified="2023-09-14T08:07:29.442Z" agent="Mozilla/5.0 (Windows NT 10.0; Win64; x64) AppleWebKit/537.36 (KHTML, like Gecko) draw.io/21.6.8 Chrome/114.0.5735.289 Electron/25.5.0 Safari/537.36" etag="AGpaQsBGnV1VgNyz_MHN" version="21.6.8" type="device">
  <diagram id="C5RBs43oDa-KdzZeNtuy" name="Page-1">
    <mxGraphModel dx="1509" dy="2057" grid="1" gridSize="10" guides="1" tooltips="1" connect="1" arrows="1" fold="1" page="1" pageScale="1" pageWidth="827" pageHeight="1169" math="0" shadow="0">
      <root>
        <mxCell id="WIyWlLk6GJQsqaUBKTNV-0" />
        <mxCell id="WIyWlLk6GJQsqaUBKTNV-1" parent="WIyWlLk6GJQsqaUBKTNV-0" />
        <mxCell id="-DexxQxoAlfIoOSBm865-2" style="edgeStyle=orthogonalEdgeStyle;rounded=0;orthogonalLoop=1;jettySize=auto;html=1;entryX=0.5;entryY=0;entryDx=0;entryDy=0;" edge="1" parent="WIyWlLk6GJQsqaUBKTNV-1" source="WIyWlLk6GJQsqaUBKTNV-3" target="-DexxQxoAlfIoOSBm865-0">
          <mxGeometry relative="1" as="geometry" />
        </mxCell>
        <mxCell id="WIyWlLk6GJQsqaUBKTNV-3" value="Visit the website" style="rounded=1;whiteSpace=wrap;html=1;fontSize=12;glass=0;strokeWidth=1;shadow=0;" parent="WIyWlLk6GJQsqaUBKTNV-1" vertex="1">
          <mxGeometry x="354" y="-100" width="120" height="40" as="geometry" />
        </mxCell>
        <mxCell id="Rpo0wXSPSlzN08Bfqm-n-16" style="edgeStyle=orthogonalEdgeStyle;rounded=0;orthogonalLoop=1;jettySize=auto;html=1;exitX=0.5;exitY=1;exitDx=0;exitDy=0;entryX=0.5;entryY=0;entryDx=0;entryDy=0;" parent="WIyWlLk6GJQsqaUBKTNV-1" source="Rpo0wXSPSlzN08Bfqm-n-18" target="-DexxQxoAlfIoOSBm865-8" edge="1">
          <mxGeometry relative="1" as="geometry">
            <mxPoint x="414" y="780" as="sourcePoint" />
            <mxPoint x="414" y="820" as="targetPoint" />
          </mxGeometry>
        </mxCell>
        <mxCell id="Rpo0wXSPSlzN08Bfqm-n-9" value="Yes" style="edgeStyle=orthogonalEdgeStyle;rounded=0;orthogonalLoop=1;jettySize=auto;html=1;entryX=0.5;entryY=0;entryDx=0;entryDy=0;" parent="WIyWlLk6GJQsqaUBKTNV-1" source="Rpo0wXSPSlzN08Bfqm-n-8" target="Rpo0wXSPSlzN08Bfqm-n-18" edge="1">
          <mxGeometry relative="1" as="geometry">
            <mxPoint x="414" y="720" as="targetPoint" />
          </mxGeometry>
        </mxCell>
        <mxCell id="Rpo0wXSPSlzN08Bfqm-n-11" value="No" style="edgeStyle=orthogonalEdgeStyle;rounded=0;orthogonalLoop=1;jettySize=auto;html=1;entryX=0.5;entryY=0;entryDx=0;entryDy=0;" parent="WIyWlLk6GJQsqaUBKTNV-1" source="Rpo0wXSPSlzN08Bfqm-n-8" target="Rpo0wXSPSlzN08Bfqm-n-26" edge="1">
          <mxGeometry relative="1" as="geometry">
            <mxPoint x="604" y="610" as="targetPoint" />
          </mxGeometry>
        </mxCell>
        <mxCell id="Rpo0wXSPSlzN08Bfqm-n-8" value="Person already has an account" style="rhombus;whiteSpace=wrap;html=1;" parent="WIyWlLk6GJQsqaUBKTNV-1" vertex="1">
          <mxGeometry x="374" y="530" width="80" height="80" as="geometry" />
        </mxCell>
        <mxCell id="Rpo0wXSPSlzN08Bfqm-n-14" style="edgeStyle=orthogonalEdgeStyle;rounded=0;orthogonalLoop=1;jettySize=auto;html=1;exitX=0.5;exitY=1;exitDx=0;exitDy=0;entryX=0.5;entryY=0;entryDx=0;entryDy=0;" parent="WIyWlLk6GJQsqaUBKTNV-1" target="Rpo0wXSPSlzN08Bfqm-n-13" edge="1">
          <mxGeometry relative="1" as="geometry">
            <mxPoint x="604" y="670" as="sourcePoint" />
          </mxGeometry>
        </mxCell>
        <mxCell id="Rpo0wXSPSlzN08Bfqm-n-30" style="edgeStyle=orthogonalEdgeStyle;rounded=0;orthogonalLoop=1;jettySize=auto;html=1;exitX=0.5;exitY=1;exitDx=0;exitDy=0;entryX=0.5;entryY=0;entryDx=0;entryDy=0;" parent="WIyWlLk6GJQsqaUBKTNV-1" source="Rpo0wXSPSlzN08Bfqm-n-13" target="Rpo0wXSPSlzN08Bfqm-n-29" edge="1">
          <mxGeometry relative="1" as="geometry" />
        </mxCell>
        <mxCell id="Rpo0wXSPSlzN08Bfqm-n-13" value="Fill in form" style="rounded=0;whiteSpace=wrap;html=1;" parent="WIyWlLk6GJQsqaUBKTNV-1" vertex="1">
          <mxGeometry x="544" y="750" width="120" height="60" as="geometry" />
        </mxCell>
        <mxCell id="Rpo0wXSPSlzN08Bfqm-n-18" value="Enter login credentials" style="shape=parallelogram;perimeter=parallelogramPerimeter;whiteSpace=wrap;html=1;fixedSize=1;" parent="WIyWlLk6GJQsqaUBKTNV-1" vertex="1">
          <mxGeometry x="354" y="690" width="120" height="60" as="geometry" />
        </mxCell>
        <mxCell id="Rpo0wXSPSlzN08Bfqm-n-24" style="edgeStyle=orthogonalEdgeStyle;rounded=0;orthogonalLoop=1;jettySize=auto;html=1;entryX=0.5;entryY=0;entryDx=0;entryDy=0;" parent="WIyWlLk6GJQsqaUBKTNV-1" source="Rpo0wXSPSlzN08Bfqm-n-19" target="Rpo0wXSPSlzN08Bfqm-n-23" edge="1">
          <mxGeometry relative="1" as="geometry" />
        </mxCell>
        <mxCell id="Rpo0wXSPSlzN08Bfqm-n-19" value="Press login on nav bar" style="shape=parallelogram;perimeter=parallelogramPerimeter;whiteSpace=wrap;html=1;fixedSize=1;" parent="WIyWlLk6GJQsqaUBKTNV-1" vertex="1">
          <mxGeometry x="354" y="180" width="120" height="60" as="geometry" />
        </mxCell>
        <mxCell id="Rpo0wXSPSlzN08Bfqm-n-25" style="edgeStyle=orthogonalEdgeStyle;rounded=0;orthogonalLoop=1;jettySize=auto;html=1;" parent="WIyWlLk6GJQsqaUBKTNV-1" source="Rpo0wXSPSlzN08Bfqm-n-23" target="Rpo0wXSPSlzN08Bfqm-n-8" edge="1">
          <mxGeometry relative="1" as="geometry" />
        </mxCell>
        <mxCell id="Rpo0wXSPSlzN08Bfqm-n-23" value="Login page opens" style="rounded=0;whiteSpace=wrap;html=1;" parent="WIyWlLk6GJQsqaUBKTNV-1" vertex="1">
          <mxGeometry x="354" y="350" width="120" height="60" as="geometry" />
        </mxCell>
        <mxCell id="Rpo0wXSPSlzN08Bfqm-n-27" value="" style="edgeStyle=orthogonalEdgeStyle;rounded=0;orthogonalLoop=1;jettySize=auto;html=1;exitX=0.5;exitY=1;exitDx=0;exitDy=0;" parent="WIyWlLk6GJQsqaUBKTNV-1" source="Rpo0wXSPSlzN08Bfqm-n-26" target="Rpo0wXSPSlzN08Bfqm-n-13" edge="1">
          <mxGeometry relative="1" as="geometry" />
        </mxCell>
        <mxCell id="Rpo0wXSPSlzN08Bfqm-n-26" value="Press inschrijven" style="shape=parallelogram;perimeter=parallelogramPerimeter;whiteSpace=wrap;html=1;fixedSize=1;" parent="WIyWlLk6GJQsqaUBKTNV-1" vertex="1">
          <mxGeometry x="544" y="610" width="120" height="60" as="geometry" />
        </mxCell>
        <mxCell id="Rpo0wXSPSlzN08Bfqm-n-34" style="edgeStyle=orthogonalEdgeStyle;rounded=0;orthogonalLoop=1;jettySize=auto;html=1;entryX=0.5;entryY=0;entryDx=0;entryDy=0;" parent="WIyWlLk6GJQsqaUBKTNV-1" source="Rpo0wXSPSlzN08Bfqm-n-29" target="Rpo0wXSPSlzN08Bfqm-n-33" edge="1">
          <mxGeometry relative="1" as="geometry" />
        </mxCell>
        <mxCell id="Rpo0wXSPSlzN08Bfqm-n-29" value="Press verzend" style="shape=parallelogram;perimeter=parallelogramPerimeter;whiteSpace=wrap;html=1;fixedSize=1;" parent="WIyWlLk6GJQsqaUBKTNV-1" vertex="1">
          <mxGeometry x="544" y="930" width="120" height="60" as="geometry" />
        </mxCell>
        <mxCell id="Rpo0wXSPSlzN08Bfqm-n-33" value="Uw formulier is verzonden" style="ellipse;whiteSpace=wrap;html=1;" parent="WIyWlLk6GJQsqaUBKTNV-1" vertex="1">
          <mxGeometry x="544" y="1060" width="120" height="80" as="geometry" />
        </mxCell>
        <mxCell id="-DexxQxoAlfIoOSBm865-1" style="edgeStyle=orthogonalEdgeStyle;rounded=0;orthogonalLoop=1;jettySize=auto;html=1;entryX=0.5;entryY=0;entryDx=0;entryDy=0;" edge="1" parent="WIyWlLk6GJQsqaUBKTNV-1" source="-DexxQxoAlfIoOSBm865-0" target="Rpo0wXSPSlzN08Bfqm-n-19">
          <mxGeometry relative="1" as="geometry" />
        </mxCell>
        <mxCell id="-DexxQxoAlfIoOSBm865-0" value="Enter home page" style="rounded=0;whiteSpace=wrap;html=1;" vertex="1" parent="WIyWlLk6GJQsqaUBKTNV-1">
          <mxGeometry x="354" y="30" width="120" height="60" as="geometry" />
        </mxCell>
        <mxCell id="-DexxQxoAlfIoOSBm865-7" value="The dashboard page opens" style="ellipse;whiteSpace=wrap;html=1;" vertex="1" parent="WIyWlLk6GJQsqaUBKTNV-1">
          <mxGeometry x="354" y="950" width="120" height="80" as="geometry" />
        </mxCell>
        <mxCell id="-DexxQxoAlfIoOSBm865-9" style="edgeStyle=orthogonalEdgeStyle;rounded=0;orthogonalLoop=1;jettySize=auto;html=1;entryX=0.5;entryY=0;entryDx=0;entryDy=0;" edge="1" parent="WIyWlLk6GJQsqaUBKTNV-1" source="-DexxQxoAlfIoOSBm865-8" target="-DexxQxoAlfIoOSBm865-7">
          <mxGeometry relative="1" as="geometry" />
        </mxCell>
        <mxCell id="-DexxQxoAlfIoOSBm865-8" value="Press login" style="shape=parallelogram;perimeter=parallelogramPerimeter;whiteSpace=wrap;html=1;fixedSize=1;" vertex="1" parent="WIyWlLk6GJQsqaUBKTNV-1">
          <mxGeometry x="354" y="820" width="120" height="60" as="geometry" />
        </mxCell>
      </root>
    </mxGraphModel>
  </diagram>
</mxfile>
